<svg width="4" height="18" viewBox="0 0 4 18" fill="none" xmlns="http://www.w3.org/2000/svg">
<path d="M2 13.375C3.01562 13.375 3.875 14.2344 3.875 15.25C3.875 16.3047 3.01562 17.125 2 17.125C0.945312 17.125 0.125 16.3047 0.125 15.25C0.125 14.2344 0.945312 13.375 2 13.375ZM2 7.125C3.01562 7.125 3.875 7.98438 3.875 9C3.875 10.0547 3.01562 10.875 2 10.875C0.945312 10.875 0.125 10.0547 0.125 9C0.125 7.98438 0.945312 7.125 2 7.125ZM2 4.625C0.945312 4.625 0.125 3.80469 0.125 2.75C0.125 1.73438 0.945312 0.875 2 0.875C3.01562 0.875 3.875 1.73438 3.875 2.75C3.875 3.80469 3.01562 4.625 2 4.625Z" fill="#009999"/>
</svg>
