<svg preserveAspectRatio="none" width="18" height="16" viewBox="0 0 18 16" fill="none" xmlns="http://www.w3.org/2000/svg">
<path d="M9.78427 0.151489C9.7383 0.103595 9.68312 0.065486 9.62204 0.0394528C9.56096 0.0134196 9.49524 0 9.42884 0C9.36244 0 9.29673 0.0134196 9.23565 0.0394528C9.17457 0.065486 9.11938 0.103595 9.07341 0.151489L5.0037 4.34074C4.90927 4.43903 4.85654 4.57003 4.85654 4.70631C4.85654 4.84259 4.90927 4.97359 5.0037 5.07189L5.47799 5.56427C5.52394 5.61199 5.57905 5.64994 5.64003 5.67587C5.701 5.7018 5.76658 5.71516 5.83284 5.71516C5.8991 5.71516 5.96468 5.7018 6.02566 5.67587C6.08663 5.64994 6.14174 5.61199 6.1877 5.56427L9.4277 2.24212L12.6677 5.56427C12.7137 5.61199 12.7688 5.64994 12.8297 5.67587C12.8907 5.7018 12.9563 5.71516 13.0226 5.71516C13.0888 5.71516 13.1544 5.7018 13.2154 5.67587C13.2763 5.64994 13.3315 5.61199 13.3774 5.56427L13.8528 5.07189C13.9473 4.97359 14 4.84259 14 4.70631C14 4.57003 13.9473 4.43903 13.8528 4.34074L9.78427 0.151489Z" fill="#7D92B5"/>
<path d="M9.78484 15.8485C9.73887 15.8964 9.68369 15.9345 9.62261 15.9605C9.56153 15.9866 9.49581 16 9.42941 16C9.36301 16 9.2973 15.9866 9.23622 15.9605C9.17514 15.9345 9.11996 15.8964 9.07398 15.8485L5.00427 11.6558C4.90984 11.5575 4.85711 11.4265 4.85711 11.2903C4.85711 11.154 4.90984 11.023 5.00427 10.9247L5.47856 10.4357C5.52451 10.388 5.57962 10.3501 5.6406 10.3241C5.70157 10.2982 5.76715 10.2848 5.83341 10.2848C5.89967 10.2848 5.96525 10.2982 6.02623 10.3241C6.0872 10.3501 6.14232 10.388 6.18827 10.4357L9.42827 13.7545L12.6683 10.4357C12.7142 10.388 12.7693 10.3501 12.8303 10.3241C12.8913 10.2982 12.9569 10.2848 13.0231 10.2848C13.0894 10.2848 13.155 10.2982 13.2159 10.3241C13.2769 10.3501 13.332 10.388 13.378 10.4357L13.8523 10.9247C13.9467 11.023 13.9994 11.154 13.9994 11.2903C13.9994 11.4265 13.9467 11.5575 13.8523 11.6558L9.78484 15.8485Z" fill="#7D92B5"/>
</svg>
