<svg width="24" height="22" viewBox="0 0 24 22" fill="none" xmlns="http://www.w3.org/2000/svg">
<path d="M21 3.5H12.8906L10.5938 1.39062C10.0312 0.828125 9.28125 0.5 8.48438 0.5H3C1.3125 0.5 0 1.85938 0 3.5V18.5C0 20.1875 1.3125 21.5 3 21.5H21C22.6406 21.5 24 20.1875 24 18.5V6.5C24 4.85938 22.6406 3.5 21 3.5ZM21.75 18.5C21.75 18.9219 21.375 19.25 21 19.25H3C2.57812 19.25 2.25 18.9219 2.25 18.5V3.5C2.25 3.125 2.57812 2.75 3 2.75H8.48438C8.67188 2.75 8.85938 2.84375 9 2.98438L12 5.75H21C21.375 5.75 21.75 6.125 21.75 6.5V18.5ZM15.8438 13.25C15.8906 13.0156 15.9375 12.7812 15.9375 12.5C15.9375 12.2656 15.8906 12.0312 15.8438 11.7969L16.7812 11.2344C16.9219 11.1875 17.0156 11.0469 16.9688 10.8594C16.8281 10.5312 16.6875 10.2031 16.5 9.875C16.2656 9.59375 16.0781 9.3125 15.8438 9.03125C15.75 8.9375 15.5625 8.89062 15.4219 8.98438L14.4844 9.54688C14.1562 9.21875 13.7344 8.98438 13.3125 8.84375V7.71875C13.3125 7.57812 13.1719 7.4375 13.0312 7.39062C12.7031 7.29688 12.3281 7.25 12 7.25C11.625 7.25 11.25 7.29688 10.9219 7.39062C10.7812 7.4375 10.6875 7.57812 10.6875 7.71875V8.84375C10.2188 8.98438 9.79688 9.21875 9.42188 9.54688L8.48438 8.98438C8.34375 8.89062 8.15625 8.9375 8.0625 9.03125C7.82812 9.3125 7.59375 9.59375 7.45312 9.875C7.26562 10.2031 7.125 10.5312 7.03125 10.8594C6.98438 11 7.03125 11.1875 7.17188 11.2344L8.10938 11.7969C8.0625 12.0312 8.0625 12.2656 8.0625 12.5C8.0625 12.7812 8.0625 13.0156 8.10938 13.25L7.17188 13.7656C7.03125 13.8594 6.9375 14 6.98438 14.1875C7.125 14.5156 7.26562 14.8438 7.45312 15.125C7.59375 15.4531 7.82812 15.7344 8.0625 16.0156C8.15625 16.1094 8.34375 16.1562 8.48438 16.0625L9.42188 15.5C9.79688 15.8281 10.2188 16.0625 10.6875 16.2031V17.3281C10.6875 17.4688 10.7812 17.6094 10.9219 17.6562C11.25 17.7031 11.625 17.75 12 17.75C12.3281 17.75 12.7031 17.7031 13.0312 17.6562C13.1719 17.6094 13.2656 17.4688 13.2656 17.3281V16.2031C13.7344 16.0625 14.1562 15.8281 14.5312 15.5L15.4688 16.0625C15.6094 16.1562 15.7969 16.1094 15.8906 16.0156C16.125 15.7344 16.3594 15.4531 16.5 15.1719C16.6875 14.8438 16.8281 14.5156 16.9219 14.1875C16.9688 14 16.9219 13.8594 16.7812 13.8125L15.8438 13.25ZM12 14.1406C11.0625 14.1406 10.3594 13.4375 10.3594 12.5C10.3594 11.6094 11.0625 10.8594 12 10.8594C12.8906 10.8594 13.6406 11.6094 13.6406 12.5C13.6406 13.4375 12.8906 14.1406 12 14.1406Z" fill="#5D75A2"/>
</svg>
