<svg preserveAspectRatio="none" width="168" height="32" viewBox="0 0 168 32" fill="none" xmlns="http://www.w3.org/2000/svg">
<g clip-path="url(#clip0_3_2260)">
<path fill-rule="evenodd" clip-rule="evenodd" d="M4.116 3.8147e-06C4.92967 3.8147e-06 5.72507 0.241286 6.40162 0.693338C7.07816 1.14539 7.60546 1.78791 7.91684 2.53964C8.22822 3.29138 8.30969 4.11857 8.15095 4.91661C7.99221 5.71464 7.60039 6.44769 7.02504 7.02304C6.44969 7.59839 5.71664 7.99021 4.9186 8.14895C4.12057 8.30769 3.29338 8.22622 2.54164 7.91484C1.78991 7.60347 1.14739 7.07616 0.695335 6.39962C0.243283 5.72308 0.00200122 4.92768 0.00200122 4.114C0.00200122 3.0229 0.435439 1.97649 1.20696 1.20497C1.97849 0.433442 3.0249 3.8147e-06 4.116 3.8147e-06V3.8147e-06Z" fill="#A91C82"/>
<path fill-rule="evenodd" clip-rule="evenodd" d="M16.002 3.93446e-06C16.9525 0.00208363 17.8728 0.333599 18.6063 0.938083C19.3398 1.54257 19.841 2.38263 20.0246 3.31519C20.2082 4.24775 20.0629 5.21513 19.6133 6.05255C19.1637 6.88997 18.4377 7.54564 17.559 7.90787C16.6803 8.27011 15.7032 8.31652 14.7941 8.03918C13.8849 7.76185 13.1001 7.17793 12.5732 6.38688C12.0463 5.59584 11.8099 4.64659 11.9043 3.70083C11.9987 2.75506 12.4181 1.87128 13.091 1.2C13.8638 0.429818 14.9109 -0.00183344 16.002 3.93446e-06V3.93446e-06Z" fill="#024D96"/>
<path fill-rule="evenodd" clip-rule="evenodd" d="M27.887 3.93446e-06C28.8375 0.00208363 29.7578 0.333599 30.4913 0.938083C31.2248 1.54257 31.726 2.38263 31.9096 3.31519C32.0932 4.24775 31.9479 5.21513 31.4983 6.05255C31.0487 6.88997 30.3228 7.54564 29.444 7.90787C28.5653 8.27011 27.5882 8.31652 26.6791 8.03918C25.77 7.76185 24.9851 7.17793 24.4582 6.38688C23.9313 5.59584 23.6949 4.64659 23.7893 3.70083C23.8837 2.75506 24.3031 1.87128 24.976 1.2C25.7488 0.429818 26.7959 -0.00183344 27.887 3.93446e-06V3.93446e-06Z" fill="#00B7E8"/>
<path fill-rule="evenodd" clip-rule="evenodd" d="M16.002 11.886C16.8157 11.886 17.6111 12.1273 18.2876 12.5793C18.9642 13.0314 19.4915 13.6739 19.8028 14.4256C20.1142 15.1774 20.1957 16.0046 20.037 16.8026C19.8782 17.6006 19.4864 18.3337 18.911 18.909C18.3357 19.4844 17.6026 19.8762 16.8046 20.035C16.0066 20.1937 15.1794 20.1122 14.4276 19.8008C13.6759 19.4895 13.0334 18.9622 12.5813 18.2856C12.1293 17.6091 11.888 16.8137 11.888 16C11.888 14.9089 12.3214 13.8625 13.093 13.091C13.8645 12.3194 14.9109 11.886 16.002 11.886V11.886Z" fill="#72B742"/>
<path fill-rule="evenodd" clip-rule="evenodd" d="M4.116 23.772C5.06655 23.7736 5.98714 24.1047 6.72093 24.709C7.45473 25.3132 7.95634 26.1532 8.14031 27.0857C8.32428 28.0183 8.17924 28.9858 7.72988 29.8235C7.28053 30.6611 6.55466 31.317 5.67594 31.6795C4.79722 32.042 3.82 32.0886 2.91076 31.8114C2.00153 31.5342 1.21652 30.9503 0.68947 30.1593C0.162422 29.3682 -0.0740617 28.4189 0.0203053 27.4731C0.114672 26.5272 0.534052 25.6433 1.207 24.972C1.97933 24.2023 3.02563 23.7707 4.116 23.772V23.772Z" fill="#FFD134"/>
<path fill-rule="evenodd" clip-rule="evenodd" d="M16.002 23.772C16.9526 23.7736 17.8731 24.1047 18.6069 24.709C19.3407 25.3132 19.8423 26.1532 20.0263 27.0857C20.2103 28.0183 20.0652 28.9858 19.6159 29.8235C19.1665 30.6611 18.4407 31.317 17.5619 31.6795C16.6832 32.042 15.706 32.0886 14.7968 31.8114C13.8875 31.5342 13.1025 30.9503 12.5755 30.1593C12.0484 29.3682 11.8119 28.4189 11.9063 27.4731C12.0007 26.5272 12.4201 25.6433 13.093 24.972C13.8653 24.2023 14.9116 23.7707 16.002 23.772V23.772Z" fill="#EE7321"/>
<path fill-rule="evenodd" clip-rule="evenodd" d="M27.882 23.772C28.6961 23.771 29.4922 24.0116 30.1695 24.4633C30.8468 24.9149 31.3749 25.5574 31.6869 26.3093C31.9989 27.0613 32.0808 27.8889 31.9222 28.6874C31.7636 29.4859 31.3717 30.2194 30.796 30.795C30.2204 31.3707 29.4869 31.7626 28.6884 31.9212C27.8899 32.0798 27.0623 31.9979 26.3103 31.6859C25.5584 31.3739 24.9159 30.8458 24.4643 30.1685C24.0126 29.4912 23.772 28.6951 23.773 27.881C23.7743 26.7916 24.2077 25.7473 24.978 24.977C25.7483 24.2067 26.7926 23.7733 27.882 23.772Z" fill="#D11319"/>
<path d="M60.525 23.479H48.001V22.279L58.701 9.894H48.106V8.694H60.379V9.894L49.659 22.279H60.525V23.479Z" fill="#2E2E2D"/>
<path d="M78.379 23.372C75.779 23.5 73.029 23.5 70.365 23.5C68.519 23.5 67.265 22.536 67.265 21.057V11.115C67.265 9.636 68.524 8.672 70.365 8.672C73.029 8.672 75.778 8.672 78.379 8.8L78.295 9.87099H70.617C69.379 9.87099 68.624 10.407 68.624 11.435V15.056H77.204V16.192H68.624V20.756C68.624 21.763 69.379 22.299 70.617 22.299H78.291L78.379 23.372Z" fill="#2E2E2D"/>
<path d="M99.441 22.879C99.4498 22.9626 99.4393 23.0471 99.4102 23.126C99.3812 23.2049 99.3345 23.276 99.2736 23.334C99.2128 23.392 99.1394 23.4352 99.0592 23.4603C98.979 23.4855 98.8941 23.4919 98.811 23.479H97.196C97.0424 23.4862 96.8905 23.4444 96.7624 23.3595C96.6342 23.2746 96.5363 23.1512 96.483 23.007L88.783 11.779C88.4008 11.2058 88.0506 10.6119 87.734 9.99999H87.126C87.147 10.579 87.147 11.179 87.147 11.779V23.479H85.804V9.29299C85.7928 9.21087 85.801 9.12729 85.8277 9.04885C85.8544 8.97041 85.8991 8.89927 85.958 8.84106C86.017 8.78285 86.0888 8.73916 86.1675 8.71346C86.2463 8.68777 86.33 8.68076 86.412 8.693H87.965C88.1202 8.69075 88.2726 8.73432 88.4032 8.81828C88.5338 8.90223 88.6367 9.02285 88.699 9.165L96.189 20.136C96.589 20.736 97.028 21.464 97.427 22.129H98.119C98.098 21.422 98.077 20.715 98.077 20.007V8.693H99.441V22.879Z" fill="#2E2E2D"/>
<path d="M107.454 23.479V8.69301H108.797V23.479H107.454Z" fill="#2E2E2D"/>
<path d="M122.309 9.936V23.479H120.945V9.936H114.589V8.69301H128.689V9.936H122.309Z" fill="#2E2E2D"/>
<path d="M147.504 23.479H145.385V16.515H136.427V23.479H134.308V8.69301H136.427V14.671H145.385V8.69301H147.504V23.479Z" fill="#2E2E2D"/>
<path d="M165.714 23.481L164.014 18.874C163.801 18.3821 163.434 17.9724 162.969 17.7059C162.504 17.4393 161.965 17.3303 161.433 17.395C159.587 17.395 158.161 17.395 157.091 17.373V23.481H154.991V8.693C157.005 8.522 158.369 8.50001 161.369 8.50001C165.649 8.50001 167.306 9.464 167.306 12.786C167.306 15.121 166.341 16.301 163.865 16.558V16.665C164.404 16.7835 164.9 17.0449 165.303 17.4219C165.705 17.7989 165.999 18.2773 166.152 18.807L167.998 23.479L165.714 23.481ZM161.33 15.552C164.183 15.531 165.169 14.952 165.169 12.917C165.169 10.882 164.183 10.345 161.33 10.345C159.63 10.345 158.162 10.366 157.092 10.366V15.552H161.33Z" fill="#2E2E2D"/>
</g>
<defs>
<clipPath id="clip0_3_2260">
<rect width="167.998" height="32" fill="white"/>
</clipPath>
</defs>
</svg>
