<svg width="18" height="24" viewBox="0 0 18 24" fill="none" xmlns="http://www.w3.org/2000/svg">
<path d="M12.375 10.5H5.625C4.96875 10.5 4.5 11.0156 4.5 11.625C4.5 12.2812 4.96875 12.75 5.625 12.75H12.375C12.9844 12.75 13.5 12.2812 13.5 11.625C13.5 11.0156 12.9844 10.5 12.375 10.5ZM7.875 15H5.625C4.96875 15 4.5 15.5156 4.5 16.125C4.5 16.7812 4.96875 17.25 5.625 17.25H7.875C8.48438 17.25 9 16.7812 9 16.125C9 15.5156 8.48438 15 7.875 15ZM12.375 6H5.625C4.96875 6 4.5 6.51562 4.5 7.125C4.5 7.78125 4.96875 8.25 5.625 8.25H12.375C12.9844 8.25 13.5 7.78125 13.5 7.125C13.5 6.51562 12.9844 6 12.375 6ZM15 0H3C1.3125 0 0 1.35938 0 3V21C0 22.6875 1.3125 24 3 24H15C16.6406 24 18 22.6875 18 21V3C18 1.35938 16.6406 0 15 0ZM15.75 21C15.75 21.4219 15.375 21.75 15 21.75H3C2.57812 21.75 2.25 21.4219 2.25 21V3C2.25 2.625 2.57812 2.25 3 2.25H15C15.375 2.25 15.75 2.625 15.75 3V21Z" fill="#5D75A2"/>
</svg>
