<svg width="32" height="24" viewBox="0 0 32 24" fill="none" xmlns="http://www.w3.org/2000/svg">
<path d="M11.6406 11.25C11.6406 11.7656 11.2656 12.1875 10.7031 12.1875C10.1875 12.1875 9.76562 11.7656 9.76562 11.25C9.76562 10.7344 10.1875 10.3125 10.7031 10.3125C11.2656 10.3125 11.6406 10.7344 11.6406 11.25ZM13.6094 6.375C13.6094 7.21875 13.1406 7.96875 12.3438 8.34375L11.4531 8.8125V9C11.4531 9.42188 11.125 9.75 10.7031 9.75C10.3281 9.75 9.95312 9.42188 9.95312 9V8.34375C9.95312 8.0625 10.1406 7.78125 10.375 7.6875L11.6875 7.03125C11.9219 6.89062 12.1094 6.65625 12.1094 6.375C12.1094 5.95312 11.7812 5.625 11.3594 5.625H9.95312C9.625 5.625 9.34375 5.90625 9.34375 6.23438C9.34375 6.65625 9.01562 6.98438 8.59375 6.98438C8.17188 6.98438 7.84375 6.65625 7.84375 6.23438C7.84375 5.0625 8.78125 4.125 9.95312 4.125H11.3594C12.5781 4.125 13.6094 5.15625 13.6094 6.375ZM10.75 0C16.0938 0 20.5 3.70312 20.5 8.25C20.5 12.8438 16.0938 16.5 10.75 16.5C9.85938 16.5 9.01562 16.4062 8.17188 16.2188C6.76562 17.1094 4.70312 18 2.125 18C1.65625 18 1.23438 17.7656 1.09375 17.2969C0.90625 16.875 0.953125 16.4062 1.28125 16.0312C1.32812 16.0312 2.35938 14.9062 3.10938 13.4062C1.79688 12 1 10.2188 1 8.25C1 3.70312 5.35938 0 10.75 0ZM8.6875 14.0156C9.39062 14.2031 10.0469 14.25 10.75 14.25C14.875 14.25 18.25 11.5781 18.25 8.25C18.25 4.96875 14.875 2.25 10.75 2.25C6.57812 2.25 3.25 4.96875 3.25 8.25C3.25 9.9375 4.04688 11.1562 4.75 11.8594L5.875 13.0312L5.125 14.4844C4.9375 14.7656 4.75 15.0938 4.5625 15.4219C5.40625 15.1875 6.20312 14.8125 7 14.2969L7.79688 13.8281L8.6875 14.0156ZM21.6719 6.04688C26.875 6.23438 31 9.84375 31 14.25C31 16.2188 30.1562 18 28.8438 19.4062C29.5938 20.9062 30.625 22.0312 30.6719 22.0312C31 22.4062 31.0469 22.875 30.8594 23.2969C30.7188 23.7656 30.2969 24 29.8281 24C27.25 24 25.1875 23.1094 23.7812 22.2188C22.9375 22.4062 22.0938 22.5 21.25 22.5C17.4062 22.5 14.0781 20.625 12.4844 17.9062C13.2812 17.8125 14.0781 17.625 14.7812 17.3438C16.0938 19.125 18.4844 20.25 21.25 20.25C21.9062 20.25 22.5625 20.2031 23.2656 20.0156L24.1562 19.8281L24.9531 20.2969C25.75 20.8125 26.5469 21.1875 27.3906 21.4219C27.2031 21.0938 27.0156 20.7656 26.8281 20.4844L26.0781 19.0312L27.2031 17.8594C27.9062 17.1562 28.75 15.9375 28.75 14.25C28.75 11.1562 25.75 8.625 21.9531 8.29688L22 8.25C22 7.5 21.8594 6.75 21.6719 6.04688ZM22.1406 17.4375C21.8594 17.7188 21.3438 17.7188 21.0625 17.4375L19.1875 15.5625C18.9062 15.2812 18.9062 14.7656 19.1875 14.4844C19.4688 14.2031 19.9844 14.2031 20.2656 14.4844L21.625 15.8438L25.1875 12.2344C25.4688 11.9531 25.9844 11.9531 26.2656 12.2344C26.5469 12.5156 26.5469 13.0312 26.2656 13.3125L22.1406 17.4375Z" fill="#5D75A2"/>
</svg>
