<svg width="24" height="24" viewBox="0 0 24 24" fill="none" xmlns="http://www.w3.org/2000/svg">
<path d="M10.8281 0.28125C11.2031 0.09375 11.5781 0 12 0C12.375 0 12.75 0.09375 13.125 0.28125L22.9688 4.45312C23.5781 4.73438 24 5.34375 24 6C24 6.70312 23.5781 7.3125 22.9688 7.59375L13.125 11.7656C12.75 11.9531 12.375 12 12 12C11.5781 12 11.2031 11.9531 10.8281 11.7656L0.984375 7.59375C0.375 7.3125 0 6.70312 0 6C0 5.34375 0.375 4.73438 0.984375 4.45312L10.8281 0.28125ZM12 2.25C11.8594 2.25 11.7656 2.29688 11.7188 2.34375L3.09375 6L11.7188 9.70312C11.7656 9.75 11.8594 9.75 12 9.75C12.0938 9.75 12.1875 9.75 12.2344 9.70312L20.8594 6L12.2344 2.34375C12.1875 2.29688 12.0938 2.25 12 2.25ZM11.7188 15.7031C11.7656 15.75 11.8594 15.75 12 15.75C12.0938 15.75 12.1875 15.75 12.2344 15.7031L21.1875 11.9062C20.9531 11.5781 20.9062 11.1562 21.0938 10.7812C21.375 10.2188 22.0312 9.98438 22.5938 10.2656L23.0156 10.5C23.625 10.7812 24 11.3438 24 12C24 12.7031 23.5781 13.3125 22.9219 13.5938L13.125 17.7656C12.75 17.9531 12.375 18 12 18C11.5781 18 11.2031 17.9531 10.8281 17.7656L1.03125 13.5938C0.375 13.3125 0 12.7031 0 11.9531C0 11.3906 0.234375 10.875 0.703125 10.5469L1.21875 10.1719C1.6875 9.84375 2.39062 9.9375 2.76562 10.4531C3.09375 10.875 3.04688 11.4844 2.67188 11.8594L11.7188 15.7031ZM2.76562 16.4531C3.09375 16.875 3.04688 17.4844 2.67188 17.8594L11.7188 21.7031C11.7656 21.75 11.8594 21.75 12 21.75C12.0938 21.75 12.1875 21.75 12.2344 21.7031L21.1875 17.9062C20.9531 17.5781 20.9062 17.1562 21.0938 16.7812C21.375 16.2188 22.0312 15.9844 22.5938 16.2656L23.0156 16.5C23.625 16.7812 24 17.3438 24 18C24 18.7031 23.5781 19.3125 22.9219 19.5938L13.125 23.7656C12.75 23.9531 12.375 24 12 24C11.5781 24 11.2031 23.9531 10.8281 23.7656L1.03125 19.5938C0.375 19.3125 0 18.7031 0 17.9531C0 17.3906 0.234375 16.875 0.703125 16.5469L1.21875 16.1719C1.6875 15.8438 2.39062 15.9375 2.76562 16.4531Z" fill="#384761"/>
</svg>
